<?xml version="1.0" encoding="UTF-8"?>
<svg width="24px" height="24px" viewBox="0 0 24 24" version="1.1" xmlns="http://www.w3.org/2000/svg" xmlns:xlink="http://www.w3.org/1999/xlink">
    <!-- Generator: Sketch 63.1 (92452) - https://sketch.com -->
    <title>company</title>
    <desc>Created with Sketch.</desc>
    <g id="表单自动生成" stroke="none" stroke-width="1" fill="none" fill-rule="evenodd">
        <g id="3" transform="translate(-1221.000000, -10.000000)">
            <g id="编组-32备份-8">
                <g id="编组-6备份">
                    <g id="编组-32备份-8">
                        <g id="编组-6备份">
                            <g id="编组-21" transform="translate(1221.000000, 10.000000)">
                                <g id="company">
                                    <circle id="Oval备份" fill="#A5D2FF" cx="12" cy="12" r="12"></circle>
                                    <g id="cluster" transform="translate(4.000000, 4.000000)" fill-rule="nonzero">
                                        <rect id="矩形" fill="#000000" opacity="0" x="0" y="0" width="16" height="16"></rect>
                                        <path d="M13.875,10.625 L13.03125,10.625 L13.03125,8.4375 L8.53125,8.4375 L8.53125,7 L12.25,7 C12.3875,7 12.5,6.8875 12.5,6.75 L12.5,2.625 C12.5,2.4875 12.3875,2.375 12.25,2.375 L3.75,2.375 C3.6125,2.375 3.5,2.4875 3.5,2.625 L3.5,6.75 C3.5,6.8875 3.6125,7 3.75,7 L7.46875,7 L7.46875,8.4375 L2.96875,8.4375 L2.96875,10.625 L2.125,10.625 C2.05625,10.625 2,10.68125 2,10.75 L2,13.5 C2,13.56875 2.05625,13.625 2.125,13.625 L4.875,13.625 C4.94375,13.625 5,13.56875 5,13.5 L5,10.75 C5,10.68125 4.94375,10.625 4.875,10.625 L4.03125,10.625 L4.03125,9.5 L7.46875,9.5 L7.46875,10.625 L6.625,10.625 C6.55625,10.625 6.5,10.68125 6.5,10.75 L6.5,13.5 C6.5,13.56875 6.55625,13.625 6.625,13.625 L9.375,13.625 C9.44375,13.625 9.5,13.56875 9.5,13.5 L9.5,10.75 C9.5,10.68125 9.44375,10.625 9.375,10.625 L8.53125,10.625 L8.53125,9.5 L11.96875,9.5 L11.96875,10.625 L11.125,10.625 C11.05625,10.625 11,10.68125 11,10.75 L11,13.5 C11,13.56875 11.05625,13.625 11.125,13.625 L13.875,13.625 C13.94375,13.625 14,13.56875 14,13.5 L14,10.75 C14,10.68125 13.94375,10.625 13.875,10.625 Z M4,12.5828125 C4,12.60625 3.98125,12.625 3.9578125,12.625 L3.040625,12.625 C3.0171875,12.625 2.9984375,12.60625 2.9984375,12.5828125 L2.9984375,11.665625 C2.9984375,11.6421875 3.0171875,11.6234375 3.040625,11.6234375 L3.9578125,11.6234375 C3.98125,11.6234375 4,11.6421875 4,11.665625 L4,12.5828125 Z M8.5,12.5828125 C8.5,12.60625 8.48125,12.625 8.4578125,12.625 L7.540625,12.625 C7.5171875,12.625 7.4984375,12.60625 7.4984375,12.5828125 L7.4984375,11.665625 C7.4984375,11.6421875 7.5171875,11.6234375 7.540625,11.6234375 L8.4578125,11.6234375 C8.48125,11.6234375 8.5,11.6421875 8.5,11.665625 L8.5,12.5828125 Z M4.5,6 L4.5,3.375 L11.5,3.375 L11.5,6 L4.5,6 Z M13,12.5828125 C13,12.60625 12.98125,12.625 12.9578125,12.625 L12.040625,12.625 C12.0171875,12.625 11.9984375,12.60625 11.9984375,12.5828125 L11.9984375,11.665625 C11.9984375,11.6421875 12.0171875,11.6234375 12.040625,11.6234375 L12.9578125,11.6234375 C12.98125,11.6234375 13,11.6421875 13,11.665625 L13,12.5828125 Z M5.625,4.6875 C5.625,5.03267797 5.90482203,5.3125 6.25,5.3125 C6.59517797,5.3125 6.875,5.03267797 6.875,4.6875 C6.875,4.34232203 6.59517797,4.0625 6.25,4.0625 C5.90482203,4.0625 5.625,4.34232203 5.625,4.6875 Z" id="形状" fill="#FFFFFF"></path>
                                    </g>
                                </g>
                            </g>
                        </g>
                    </g>
                </g>
            </g>
        </g>
    </g>
</svg>